<svg xmlns="http://www.w3.org/2000/svg" viewBox="0 0 120 120" width="120" height="120" role="img" aria-label="SIAUMex Head">
  <defs>
    <radialGradient id="g1" cx="50%" cy="40%" r="60%">
      <stop offset="0" stop-color="#7df9ff"/>
      <stop offset="0.55" stop-color="#33b7ff"/>
      <stop offset="1" stop-color="#2563eb"/>
    </radialGradient>
    <linearGradient id="glow" x1="0" y1="0" x2="0" y2="1">
      <stop offset="0" stop-color="#ffe59d"/>
      <stop offset="1" stop-color="#ff9d1a"/>
    </linearGradient>
    <filter id="softGlow" x="-50%" y="-50%" width="200%" height="200%">
      <feGaussianBlur stdDeviation="3" result="b"/>
      <feMerge>
        <feMergeNode in="b"/>
        <feMergeNode in="SourceGraphic"/>
      </feMerge>
    </filter>
  </defs>
  <g id="bulb" filter="url(#softGlow)">
    <path d="M60 8c-22 0-40 16.5-40 36.8C20 59 30 68.5 36 73c2 1.6 4 4.7 4.8 7.5.7 2.4 2.5 4.3 5 4.9 3.4.8 7 1.2 14.2 1.2s10.8-.4 14.2-1.2c2.5-.6 4.3-2.5 5-4.9.8-2.8 2.8-5.9 4.8-7.5 6-4.5 16-14 16-28.2C100 24.5 82 8 60 8z" fill="url(#g1)" stroke="#7dd3fc" stroke-width="2"/>
    <rect x="44" y="88" width="32" height="12" rx="6" fill="#0ea5e9" opacity=".8"/>
    <rect x="48" y="100" width="24" height="10" rx="5" fill="#38bdf8" opacity=".9"/>
  </g>
  <g id="gear" transform="translate(60 44)">
    <circle r="12" fill="#0ea5e9"/>
    <g fill="#fff">
      <rect x="-2" y="-12" width="4" height="24" rx="1"/>
      <rect x="-12" y="-2" width="24" height="4" rx="1"/>
      <rect x="-9" y="-9" width="18" height="3" rx="1" transform="rotate(45)"/>
      <rect x="-9" y="-9" width="18" height="3" rx="1" transform="rotate(-45)"/>
    </g>
    <circle r="5" fill="url(#glow)"/>
  </g>
</svg>